PathFileType	4	(X/Y/Z)	2014001\dynamic\2014001_C3_04.trc
DataRate	CameraRate	NumFrames	NumMarkers	Units	OrigDataRate	OrigDataStartFrame	OrigNumFrames
100.000000	100.000000	4	52	mm	100.000000	0	178
Frame#	Time	L_IAS			L_IPS			R_IPS			R_IAS			L_FTC			L_FLE			L_FME			L_FAX			L_TTC			L_FAL			L_TAM			L_FCC			L_FM1			L_FM2			L_FM5			R_FTC			R_FLE			R_FME			R_FAX			R_TTC			R_FAL			R_TAM			R_FCC			R_FM1			R_FM2			R_FM5			CV7			TV10			SXS			SJN			L_SIA			L_SRS			L_SAA			L_SAE			L_HLE			L_HME			L_UOA			L_RSP			L_UHE			L_HM2			L_HM5			R_SIA			R_SRS			R_SAA			R_SAE			R_HLE			R_HME			R_UOA			R_RSP			R_UHE			R_HM2			R_HM5			
		X1	Y1	Z1	X2	Y2	Z2	X3	Y3	Z3	X4	Y4	Z4	X5	Y5	Z5	X6	Y6	Z6	X7	Y7	Z7	X8	Y8	Z8	X9	Y9	Z9	X10	Y10	Z10	X11	Y11	Z11	X12	Y12	Z12	X13	Y13	Z13	X14	Y14	Z14	X15	Y15	Z15	X16	Y16	Z16	X17	Y17	Z17	X18	Y18	Z18	X19	Y19	Z19	X20	Y20	Z20	X21	Y21	Z21	X22	Y22	Z22	X23	Y23	Z23	X24	Y24	Z24	X25	Y25	Z25	X26	Y26	Z26	X27	Y27	Z27	X28	Y28	Z28	X29	Y29	Z29	X30	Y30	Z30	X31	Y31	Z31	X32	Y32	Z32	X33	Y33	Z33	X34	Y34	Z34	X35	Y35	Z35	X36	Y36	Z36	X37	Y37	Z37	X38	Y38	Z38	X39	Y39	Z39	X40	Y40	Z40	X41	Y41	Z41	X42	Y42	Z42	X43	Y43	Z43	X44	Y44	Z44	X45	Y45	Z45	X46	Y46	Z46	X47	Y47	Z47	X48	Y48	Z48	X49	Y49	Z49	X50	Y50	Z50	X51	Y51	Z51	X52	Y52	Z52	

1	0	75.24826812744143	858.5147094726567	535.9346313476565	147.0749511718751	891.484985351563	713.0534667968752	234.8654327392579	892.259155273438	712.9967041015627	315.3314819335939	857.850463867188	538.332458496094	15.13127613067628	769.3130493164067	604.488464355469	42.24986648559572	435.7363891601565	471.1358947753909	157.0257873535157	433.6565551757815	437.0252990722659	41.10731506347658	374.9599609375001	465.9541015625002	78.20454406738284	381.0999450683595	393.2944335937502	75.68769073486331	73.94403839111331	339.8651733398439	157.8581695556641	99.64190673828131	313.508270263672	129.5233612060547	19.79270744323731	353.6785278320314	125.3556823730469	111.172721862793	195.6699981689454	67.97187805175784	113.1488418579102	200.6768188476564	36.96902084350587	71.35514831542972	235.9076538085939	370.3849487304689	771.8186645507817	646.4187011718752	318.419891357422	432.387145996094	720.3999023437502	202.6286163330079	419.9259338378909	703.7563476562502	318.7959594726564	371.5508117675782	756.5191040039065	269.9544677734376	349.8609008789064	698.701843261719	257.9834289550782	81.55812835693362	875.8879394531255	175.1467590332032	93.06853485107425	833.4447631835942	199.668670654297	51.86680603027347	922.587036132813	195.2056884765626	23.98271560668946	737.754333496094	258.9097290039064	34.18419647216798	734.3742675781252	300.3287048339845	22.94102859497071	799.4728393554692	203.1972656250001	1357.839721679688	682.7298583984377	209.4746704101564	1126.568481445313	742.3879394531252	178.917709350586	1137.438720703125	505.155456542969	180.9506378173829	1298.701782226563	553.8928833007815	124.9771423339844	1161.083374023438	758.2575683593752	126.152084350586	1291.44677734375	739.5979614257815	9.902674674987797	1288.259521484375	689.5369262695315	13.56759262084962	1300.8388671875	646.6630859375002	-55.56794738769534	1027.802368164063	723.159606933594	23.18877220153809	992.036254882813	725.029235839844	-19.97640037536622	997.647338867188	747.2161254882815	-67.23858642578128	783.8115234375005	666.1377563476565	-114.7809600830079	797.312377929688	733.1594848632815	-87.1184997558594	698.3614501953127	658.1166992187502	-119.1365509033204	721.448425292969	754.9451904296877	331.8914489746095	1171.803955078125	722.2008056640627	299.7619628906251	1293.526123046875	706.7452392578127	386.872009277344	1296.737548828125	611.613952636719	364.2275390625001	1303.948852539063	566.2066040039065	463.7124938964846	1010.401550292969	531.6993408203127	396.988708496094	979.591674804688	567.9348754882815	444.0675964355471	975.2309570312505	559.0576171875002	409.3009948730471	860.129272460938	363.9047241210939	479.6738891601565	836.7444458007817	399.8447570800784	418.6631774902346	794.8598022460942	295.3259277343751	478.2992248535159	761.7581176757815	371.0705871582032	
2	0.01	75.28013610839847	856.613891601563	522.791198730469	145.9539184570313	889.6106567382817	700.4224243164065	233.5214843750001	890.740356445313	700.6523437500002	315.4304809570314	856.2525024414067	526.5440673828127	14.84546375274659	767.310485839844	590.8872070312502	43.28243255615236	434.061706542969	457.6441650390627	158.5508575439454	432.3329162597659	425.0909423828127	42.08693695068361	373.3362731933595	451.9602661132815	79.88237762451175	380.1807861328126	379.5752563476564	77.27194976806643	73.55094909667972	323.262176513672	159.7676696777344	99.37944030761724	297.6397399902345	130.9893035888672	19.36891174316407	337.1324462890626	128.1492919921876	111.8064575195313	179.5597381591797	70.71026611328128	113.5213699340821	184.0622100830079	39.58847808837892	71.34763336181643	218.7669982910157	370.1001586914064	770.8167114257817	635.4756469726565	318.6898803710939	432.2906494140627	712.5220336914065	202.9138946533204	419.1228942871096	695.4292602539065	319.0313415527345	371.9139709472657	749.6633300781252	270.4562988281251	349.0515747070314	692.141540527344	258.7851867675782	84.0445251464844	874.7036743164067	175.8531494140626	95.08089447021487	832.1718750000005	200.349822998047	55.52716827392581	921.9821777343755	195.5990753173829	24.23393440246583	737.640319824219	259.216278076172	34.17501449584962	734.023132324219	300.5115966796876	23.01531028747559	799.2961425781255	202.0053253173829	1355.92724609375	670.948669433594	208.3020019531251	1124.69775390625	730.2591552734377	178.1030426025391	1135.662841796875	493.1010742187502	179.8905029296876	1296.904907226563	541.9619140625002	123.8633193969727	1158.938232421875	746.1509399414065	124.9972305297852	1289.460815429688	727.6473388671877	8.758854866027836	1286.210815429688	677.6170043945315	12.4160270690918	1298.844848632813	634.7588500976565	-56.35763931274417	1025.608520507813	710.8164062500002	22.48906517028809	989.830688476563	712.3591918945315	-20.70855522155762	995.448120117188	734.6583251953127	-68.20307922363284	781.5480346679692	654.1868896484377	-115.4682388305665	795.199340820313	721.4276123046877	-88.03996276855472	696.040466308594	646.5303344726565	-119.6024551391602	719.4275512695315	743.5022583007815	330.6385192871095	1169.989135742188	710.483581542969	298.5289001464845	1291.74658203125	695.0164184570315	385.7570495605471	1294.848510742188	600.038024902344	363.0044555664064	1302.1044921875	554.495544433594	462.4541320800784	1008.623596191407	519.5900878906252	395.6279296875002	977.762329101563	555.6472167968752	442.7535705566409	973.3965454101567	546.8176269531252	407.7137145996096	858.8698120117192	351.3073730468751	478.0397644042971	835.2640991210942	387.1963806152346	416.9517517089846	793.948120117188	282.5136108398439	476.5260009765627	760.4067382812502	358.0925598144532	
3	0.02	75.2448425292969	855.0213012695317	509.3396301269534	144.8371582031251	887.9284057617192	687.5209960937502	232.1749267578126	889.314575195313	687.9915771484377	315.4589843750001	854.7221679687505	514.445739746094	14.49465274810792	765.6416015625002	576.8786621093752	44.13229370117189	432.8360595703127	443.4852294921877	159.8410034179688	431.346374511719	412.6752014160159	42.8696975708008	372.071746826172	437.7286682128909	81.502067565918	379.1488342285157	365.6913452148439	78.87622833251956	72.72369384765628	309.3069458007814	161.7241363525391	98.37542724609381	284.2597961425782	132.4346618652344	18.83329010009766	323.879364013672	130.971908569336	110.2841567993165	165.945053100586	73.46274566650393	111.8725814819337	169.9568481445313	42.20348358154298	69.85272979736331	204.5747375488282	369.6820068359376	769.8091430664067	624.1690673828127	318.9495544433595	432.2212829589846	704.1368408203127	203.1363372802736	418.3440856933596	686.6315917968752	319.2766418457032	372.3377380371095	742.341247558594	270.9537658691407	348.2619018554689	685.156433105469	259.7347106933595	86.83152770996097	873.4024047851567	176.6882629394532	97.31518554687506	830.7365112304692	201.1504211425782	59.56250381469729	921.2648925781255	196.0363922119142	24.44490432739259	737.4979248046877	259.5512695312501	34.14210891723634	733.6251220703127	300.7316894531251	23.1250343322754	799.002807617188	200.6826629638673	1354.121704101563	659.135681152344	207.0156250000001	1122.859252929688	717.940856933594	177.1972351074219	1134.0908203125	480.8513183593752	178.7493438720704	1295.254150390625	529.9583129882815	122.5867080688477	1156.884033203125	733.8972167968752	123.6718673706055	1287.568237304688	715.5957031250002	7.477081775665287	1284.26904296875	665.5007934570315	11.1467571258545	1296.95751953125	622.6851806640627	-57.28542327880862	1023.47900390625	698.1430664062502	21.66015434265137	987.7272949218755	699.5029907226565	-21.62867546081544	993.3320312500005	721.824645996094	-69.13571929931643	779.3666381835942	641.8278808593752	-116.2171936035157	793.1220092773442	709.2377929687502	-88.90731048583987	693.8039550781252	634.4746093750002	-120.1624145507813	717.4394531250002	731.5463867187502	329.1974487304689	1168.231689453125	698.702819824219	297.1527404785157	1290.036254882813	683.2836914062502	384.5593566894534	1293.079345703125	588.4871826171877	361.7388916015626	1300.389526367188	542.8250732421877	461.086608886719	1006.911315917969	507.7605285644534	394.0924072265627	976.0382690429692	543.608825683594	441.2363891601565	971.6159057617192	534.8486328125002	406.0755310058596	857.4633178710942	339.1079101562501	476.338073730469	833.6768188476567	375.0227966308595	415.2043762207034	792.7697753906255	270.216278076172	474.6668701171877	758.8950195312502	345.7154235839845	
4	0.03	75.13155364990237	853.7727050781255	495.5832214355471	143.7413787841797	886.4797973632817	674.3452148437502	230.8543090820314	888.0018920898442	675.0021972656252	315.3918457031251	853.2677612304692	502.0071105957034	14.07048702239991	764.3562011718752	562.490173339844	44.80335998535158	432.0703735351565	428.713317871094	160.8832397460938	430.7175292968752	399.801452636719	43.45125961303712	371.1718139648439	423.2469177246096	83.06487274169925	378.0524291992189	351.6353454589845	80.43598937988284	71.48676300048831	297.7626037597657	163.6580810546876	96.67026519775396	273.1577453613282	133.7854919433594	18.19640541076661	313.6600952148439	133.7976837158204	106.6709060668946	154.6011810302735	76.19780731201175	108.2721328735352	158.1133880615235	44.73648834228517	66.95202636718753	193.086151123047	369.1276855468751	768.797485351563	612.470153808594	319.2084960937501	432.1806945800784	695.2250976562502	203.3055877685548	417.5897216796877	677.331237792969	319.5418701171876	372.8339843750001	734.5396118164065	271.4696350097657	347.4912414550782	677.7233886718752	260.8271789550782	89.94356536865237	871.9346313476567	177.6662902832032	99.76960754394537	829.0754394531255	202.0596160888673	63.99670791625979	920.3682250976567	196.5024719238282	24.59856033325197	737.3385009765627	259.9035034179689	34.0699920654297	733.1986083984377	300.9864196777345	23.27402687072755	798.5924682617192	199.2350006103517	1352.445678710938	647.3001708984377	205.624725341797	1121.069091796875	705.426940917969	176.1984558105469	1132.757446289063	468.4136657714846	177.5336914062501	1293.782104492188	517.8916015625002	121.1546707153321	1154.938720703125	721.4904785156252	122.1799240112305	1285.78466796875	703.448425292969	6.063571453094486	1282.458129882813	653.191833496094	9.766367912292484	1295.201782226563	610.4489746093752	-58.34168243408206	1021.440368652344	685.1460571289065	20.7119369506836	985.7556762695317	686.4783325195315	-22.72142219543458	991.3314819335942	708.7263793945315	-70.01939392089847	777.2956542968755	629.0591430664065	-117.0205307006837	791.107055664063	696.5755004882815	-89.70859527587893	691.6833496093752	621.937927246094	-120.8271179199219	715.5085449218752	719.0562133789065	327.5699462890626	1166.537353515625	686.8552246093752	295.637176513672	1288.409057617188	671.5564575195315	383.2864685058595	1291.455688476563	576.9628906250002	360.4457092285157	1298.833129882813	531.209167480469	459.6186828613284	1005.286315917969	496.2201232910159	392.3973083496096	974.441284179688	531.8336181640627	439.5272216796877	969.9083862304692	523.163513183594	404.3931274414065	855.936889648438	327.3187255859376	474.5806884765627	832.010620117188	363.3250122070314	413.4267272949221	791.3513793945317	258.4389648437501	472.7387695312502	757.2509765625002	333.9388427734376	
